<svg xmlns="http://www.w3.org/2000/svg" xmlns:xlink="http://www.w3.org/1999/xlink" width="852" height="596" viewBox="0 0 852 596">
  <defs>
    <clipPath id="clip-brand">
      <rect width="852" height="596"/>
    </clipPath>
  </defs>
  <g id="brand" clip-path="url(#clip-brand)">
    <rect width="852" height="596" fill="#fff"/>
    <g id="Group_78" data-name="Group 78">
      <g id="Group_70" data-name="Group 70" transform="translate(81 342)">
        <g id="Group_69" data-name="Group 69" transform="translate(0 73.904)">
          <path id="Path_235" data-name="Path 235" d="M241.337,412.074v30.235A15.164,15.164,0,0,1,252.51,437.2a15.368,15.368,0,0,1,11.976,5.371,19.148,19.148,0,0,1,4.786,13.29,19.556,19.556,0,0,1-4.822,13.582,15.533,15.533,0,0,1-12.087,5.333,15.367,15.367,0,0,1-11.027-4.746v3.725H233.12V412.074Zm19.535,44.149A12.281,12.281,0,0,0,258.1,447.9a8.883,8.883,0,0,0-7.047-3.287,9.445,9.445,0,0,0-7.376,3.178,11.791,11.791,0,0,0-2.811,8.177,11.957,11.957,0,0,0,2.775,8.289,9.224,9.224,0,0,0,7.3,3.178,9.051,9.051,0,0,0,7.083-3.178A11.664,11.664,0,0,0,260.872,456.223Z" transform="translate(-233.12 -412.074)" fill="#1a1818"/>
          <path id="Path_236" data-name="Path 236" d="M264.89,431.978H273.1v3.18a15.622,15.622,0,0,1,4.018-3.249,9.2,9.2,0,0,1,4.235-.916,13.267,13.267,0,0,1,6.792,2.119l-3.761,7.524a7.845,7.845,0,0,0-4.564-1.681q-6.719,0-6.721,10.152v18.44H264.89Z" transform="translate(-222.703 -405.87)" fill="#1a1818"/>
          <path id="Path_237" data-name="Path 237" d="M294.17,486.9h-8.217V431.978h8.217v3.872a15.2,15.2,0,0,1,11.024-4.857,15.377,15.377,0,0,1,12.089,5.406,19.528,19.528,0,0,1,4.822,13.549,19.212,19.212,0,0,1-4.786,13.326,15.582,15.582,0,0,1-23.149.292ZM313.7,449.983a12.308,12.308,0,0,0-2.775-8.329,8.984,8.984,0,0,0-7.086-3.247,9.383,9.383,0,0,0-7.338,3.138,11.912,11.912,0,0,0-2.814,8.253,12.158,12.158,0,0,0,2.814,8.253,9.224,9.224,0,0,0,7.3,3.178,8.9,8.9,0,0,0,7.047-3.214A11.666,11.666,0,0,0,313.7,449.983Z" transform="translate(-215.796 -405.87)" fill="#1a1818"/>
          <path id="Path_238" data-name="Path 238" d="M328.6,448.059l-12.778-16.324H325.6l7.924,10.372,8.071-10.372h10.079L338.53,448.059,353.757,467.3H343.97l-10.444-13.292-10.7,13.292H312.786Z" transform="translate(-206.998 -405.627)" fill="#1a1818"/>
        </g>
        <path id="Path_239" data-name="Path 239" d="M396.256,356.419H233.12v65.688h8.216V364.635H396.256V519.57H303.277v8.216h101.2V356.419Z" transform="translate(-233.12 -356.419)" fill="#1a1818"/>
      </g>
      <g id="Group_77" data-name="Group 77" transform="translate(521 342)">
        <path id="Path_239-2" data-name="Path 239" d="M396.256,356.419H233.12v65.688h8.216V364.635H396.256V519.57H303.277v8.216h101.2V356.419Z" transform="translate(-233.12 -356.419)" fill="#1a1818"/>
      </g>
      <g id="Group_75" data-name="Group 75" transform="translate(412.503 62.998)">
        <g id="Group_71" data-name="Group 71" transform="translate(181.163 6.751)">
          <path id="Path_240" data-name="Path 240" d="M869.965,432.846V368.325h9.7a42.528,42.528,0,0,1,10.322,1,15.441,15.441,0,0,1,6.554,3.386,17.6,17.6,0,0,1,4.305,6.14,18.6,18.6,0,0,1,1.628,7.524,15.244,15.244,0,0,1-5.309,11.745,15.554,15.554,0,0,1,8.111,6.136,17.353,17.353,0,0,1,3,10.113,17.17,17.17,0,0,1-5.345,12.788,17.537,17.537,0,0,1-7.225,4.472,42.152,42.152,0,0,1-10.992,1.214Zm9.733-36.815h3.056q5.422,0,7.957-2.409c1.682-1.6,2.528-3.961,2.528-7.076q0-4.561-2.591-6.92t-7.521-2.358H879.7Zm0,27.66h6.019q6.6,0,9.7-2.592a8.97,8.97,0,0,0,3.257-7.1,9.09,9.09,0,0,0-3.132-7.017q-3.051-2.8-10.906-2.8H879.7Z" transform="translate(-869.965 -362.264)" fill="#1a1818"/>
          <path id="Path_241" data-name="Path 241" d="M903.664,386.54h9.41v3.637a17.9,17.9,0,0,1,4.59-3.725,10.567,10.567,0,0,1,4.847-1.042,15.214,15.214,0,0,1,7.776,2.425l-4.305,8.609a8.964,8.964,0,0,0-5.224-1.924q-7.687,0-7.685,11.616v21.108h-9.41Z" transform="translate(-858.915 -356.662)" fill="#1a1818"/>
          <path id="Path_242" data-name="Path 242" d="M926.7,375.011a5.828,5.828,0,0,1,1.793-4.26,6.1,6.1,0,0,1,8.654,0,5.778,5.778,0,0,1,1.8,4.306,5.924,5.924,0,0,1-1.8,4.348,5.813,5.813,0,0,1-4.3,1.793,6.121,6.121,0,0,1-6.144-6.187Zm10.824,16.927v40.7h-9.4v-40.7Z" transform="translate(-851.361 -362.06)" fill="#1a1818"/>
          <path id="Path_243" data-name="Path 243" d="M981.628,426.281c0,1.923-.073,3.616-.2,5.077a33.372,33.372,0,0,1-.526,3.863,17.2,17.2,0,0,1-3.92,7.9q-5.52,6.354-15.174,6.351-8.139,0-13.412-4.389-5.428-4.515-6.266-12.492h9.439a10.706,10.706,0,0,0,1.8,4.64q2.926,3.8,8.525,3.8,10.322,0,10.323-12.66v-5.687a17.558,17.558,0,0,1-12.911,5.73,17.36,17.36,0,0,1-13.63-6.019q-5.344-6.1-5.342-15.256a23.492,23.492,0,0,1,4.969-15.123,17.288,17.288,0,0,1,14.122-6.6,16.423,16.423,0,0,1,12.792,5.725V386.54h9.407ZM972.6,406.974c0-3.958-1.066-7.117-3.175-9.485a10.517,10.517,0,0,0-8.232-3.634,10.129,10.129,0,0,0-8.447,3.966,14.423,14.423,0,0,0-2.8,9.194,14.263,14.263,0,0,0,2.8,9.108,10.122,10.122,0,0,0,8.447,3.887,10.315,10.315,0,0,0,8.517-3.928A13.978,13.978,0,0,0,972.6,406.974Z" transform="translate(-846.89 -356.662)" fill="#1a1818"/>
          <path id="Path_244" data-name="Path 244" d="M978.33,363.761h9.4v33.263a16.16,16.16,0,0,1,11.072-4.515,14.308,14.308,0,0,1,11.031,4.472q3.512,3.886,3.508,12.409v24.953h-9.4V410.269q0-4.886-1.735-7.084t-5.573-2.192q-4.94,0-6.94,3.054-1.97,3.087-1.964,10.611v19.685h-9.4Z" transform="translate(-834.432 -363.761)" fill="#1a1818"/>
          <path id="Path_245" data-name="Path 245" d="M1023.26,398.717v31.932h-9.4V398.717h-4.009v-8.772h4.009V375.027h9.4v14.918h7.317v8.772Z" transform="translate(-824.097 -360.067)" fill="#1a1818"/>
        </g>
        <g id="Group_72" data-name="Group 72" transform="translate(181.163 86.367)">
          <path id="Path_246" data-name="Path 246" d="M879.7,466.6v26.2h-9.733v-64.52h11.027a50.089,50.089,0,0,1,12.247,1.125,16.461,16.461,0,0,1,7.35,4.264,18.362,18.362,0,0,1,5.561,13.709q0,8.864-5.934,14.036-5.936,5.189-16,5.187Zm0-9.027h3.638q13.407,0,13.409-10.323,0-9.987-13.826-9.987H879.7Z" transform="translate(-869.965 -422.221)" fill="#1a1818"/>
          <path id="Path_247" data-name="Path 247" d="M900.037,434.97a5.8,5.8,0,0,1,1.8-4.263,6.083,6.083,0,0,1,8.646,0,5.786,5.786,0,0,1,1.806,4.3,5.933,5.933,0,0,1-1.806,4.345,5.787,5.787,0,0,1-4.3,1.8,6.143,6.143,0,0,1-6.144-6.183Zm10.825,16.92v40.7h-9.4v-40.7Z" transform="translate(-860.104 -422.016)" fill="#1a1818"/>
          <path id="Path_248" data-name="Path 248" d="M928.821,464.892,914.2,446.214h11.2l9.07,11.867,9.237-11.867h11.53l-15.042,18.678,17.426,22.024h-11.2L934.465,471.7l-12.246,15.212H910.727Z" transform="translate(-856.599 -416.34)" fill="#1a1818"/>
          <path id="Path_249" data-name="Path 249" d="M984.011,469.06H954.849a12.352,12.352,0,0,0,3.263,7.982,9.925,9.925,0,0,0,7.394,2.924,9.6,9.6,0,0,0,5.8-1.673,23.715,23.715,0,0,0,5.14-6.183l7.945,4.429a32.2,32.2,0,0,1-3.888,5.37,20.521,20.521,0,0,1-4.389,3.676,17.578,17.578,0,0,1-5.051,2.109,24.724,24.724,0,0,1-5.893.669q-9.115,0-14.625-5.848-5.524-5.892-5.519-15.631,0-9.648,5.346-15.627,5.4-5.888,14.29-5.893,9,0,14.211,5.725,5.181,5.681,5.184,15.756Zm-9.649-7.691q-1.96-7.517-9.484-7.519a9.674,9.674,0,0,0-3.214.522,9.085,9.085,0,0,0-2.742,1.5,9.6,9.6,0,0,0-2.106,2.357,10.927,10.927,0,0,0-1.341,3.138Z" transform="translate(-845.352 -416.619)" fill="#1a1818"/>
          <path id="Path_250" data-name="Path 250" d="M987.734,423.717v70.576h-9.4V423.717Z" transform="translate(-834.432 -423.717)" fill="#1a1818"/>
        </g>
        <g id="Group_74" data-name="Group 74">
          <g id="Group_73" data-name="Group 73" transform="translate(0 71.319)">
            <path id="Path_251" data-name="Path 251" d="M741.469,412.385v29.177a14.633,14.633,0,0,1,10.781-4.933,14.836,14.836,0,0,1,11.557,5.181,18.489,18.489,0,0,1,4.617,12.825,18.86,18.86,0,0,1-4.653,13.109,14.986,14.986,0,0,1-11.664,5.146,14.83,14.83,0,0,1-10.638-4.581V471.9h-7.932V412.385Zm18.847,42.6a11.845,11.845,0,0,0-2.677-8.032,8.568,8.568,0,0,0-6.8-3.172,9.112,9.112,0,0,0-7.119,3.067,11.367,11.367,0,0,0-2.713,7.889,11.525,11.525,0,0,0,2.68,8,8.9,8.9,0,0,0,7.046,3.066,8.735,8.735,0,0,0,6.835-3.066A11.245,11.245,0,0,0,760.315,454.988Z" transform="translate(-733.537 -412.385)" fill="#1a1818"/>
            <path id="Path_252" data-name="Path 252" d="M764.2,431.591h7.926v3.071a15.035,15.035,0,0,1,3.88-3.138,8.877,8.877,0,0,1,4.085-.883,12.79,12.79,0,0,1,6.555,2.044l-3.626,7.261a7.589,7.589,0,0,0-4.406-1.623q-6.485,0-6.487,9.8v17.793H764.2Z" transform="translate(-723.484 -406.399)" fill="#1a1818"/>
            <path id="Path_253" data-name="Path 253" d="M792.449,484.592h-7.926v-53h7.926v3.737a14.682,14.682,0,0,1,10.642-4.686,14.838,14.838,0,0,1,11.666,5.216,18.855,18.855,0,0,1,4.653,13.076,18.538,18.538,0,0,1-4.62,12.858,15.038,15.038,0,0,1-22.341.283ZM811.3,448.967a11.851,11.851,0,0,0-2.678-8.035,8.659,8.659,0,0,0-6.837-3.135,9.055,9.055,0,0,0-7.08,3.029,11.489,11.489,0,0,0-2.716,7.966,11.729,11.729,0,0,0,2.716,7.961,8.908,8.908,0,0,0,7.047,3.066,8.6,8.6,0,0,0,6.8-3.1A11.26,11.26,0,0,0,811.3,448.967Z" transform="translate(-716.819 -406.399)" fill="#1a1818"/>
            <path id="Path_254" data-name="Path 254" d="M825.671,447.11l-12.329-15.753h9.443l7.646,10.01,7.788-10.01h9.727L835.26,447.11l14.692,18.571h-9.44L830.43,452.856l-10.324,12.825h-9.69Z" transform="translate(-708.328 -406.164)" fill="#1a1818"/>
          </g>
          <path id="Path_255" data-name="Path 255" d="M890.963,358.677H733.537v63.388h7.931V366.605H890.963V516.118H801.242v7.93h97.653V358.677Z" transform="translate(-733.537 -358.677)" fill="#1a1818"/>
        </g>
      </g>
      <g id="Group_76" data-name="Group 76" transform="translate(-100.497 62.998)">
        <g id="Group_71-2" data-name="Group 71" transform="translate(181.163 6.751)">
          <path id="Path_240-2" data-name="Path 240" d="M869.965,432.846V368.325h9.7a42.528,42.528,0,0,1,10.322,1,15.441,15.441,0,0,1,6.554,3.386,17.6,17.6,0,0,1,4.305,6.14,18.6,18.6,0,0,1,1.628,7.524,15.244,15.244,0,0,1-5.309,11.745,15.554,15.554,0,0,1,8.111,6.136,17.353,17.353,0,0,1,3,10.113,17.17,17.17,0,0,1-5.345,12.788,17.537,17.537,0,0,1-7.225,4.472,42.152,42.152,0,0,1-10.992,1.214Zm9.733-36.815h3.056q5.422,0,7.957-2.409c1.682-1.6,2.528-3.961,2.528-7.076q0-4.561-2.591-6.92t-7.521-2.358H879.7Zm0,27.66h6.019q6.6,0,9.7-2.592a8.97,8.97,0,0,0,3.257-7.1,9.09,9.09,0,0,0-3.132-7.017q-3.051-2.8-10.906-2.8H879.7Z" transform="translate(-869.965 -362.264)" fill="#1a1818"/>
          <path id="Path_241-2" data-name="Path 241" d="M903.664,386.54h9.41v3.637a17.9,17.9,0,0,1,4.59-3.725,10.567,10.567,0,0,1,4.847-1.042,15.214,15.214,0,0,1,7.776,2.425l-4.305,8.609a8.964,8.964,0,0,0-5.224-1.924q-7.687,0-7.685,11.616v21.108h-9.41Z" transform="translate(-858.915 -356.662)" fill="#1a1818"/>
          <path id="Path_242-2" data-name="Path 242" d="M926.7,375.011a5.828,5.828,0,0,1,1.793-4.26,6.1,6.1,0,0,1,8.654,0,5.778,5.778,0,0,1,1.8,4.306,5.924,5.924,0,0,1-1.8,4.348,5.813,5.813,0,0,1-4.3,1.793,6.121,6.121,0,0,1-6.144-6.187Zm10.824,16.927v40.7h-9.4v-40.7Z" transform="translate(-851.361 -362.06)" fill="#1a1818"/>
          <path id="Path_243-2" data-name="Path 243" d="M981.628,426.281c0,1.923-.073,3.616-.2,5.077a33.372,33.372,0,0,1-.526,3.863,17.2,17.2,0,0,1-3.92,7.9q-5.52,6.354-15.174,6.351-8.139,0-13.412-4.389-5.428-4.515-6.266-12.492h9.439a10.706,10.706,0,0,0,1.8,4.64q2.926,3.8,8.525,3.8,10.322,0,10.323-12.66v-5.687a17.558,17.558,0,0,1-12.911,5.73,17.36,17.36,0,0,1-13.63-6.019q-5.344-6.1-5.342-15.256a23.492,23.492,0,0,1,4.969-15.123,17.288,17.288,0,0,1,14.122-6.6,16.423,16.423,0,0,1,12.792,5.725V386.54h9.407ZM972.6,406.974c0-3.958-1.066-7.117-3.175-9.485a10.517,10.517,0,0,0-8.232-3.634,10.129,10.129,0,0,0-8.447,3.966,14.423,14.423,0,0,0-2.8,9.194,14.263,14.263,0,0,0,2.8,9.108,10.122,10.122,0,0,0,8.447,3.887,10.315,10.315,0,0,0,8.517-3.928A13.978,13.978,0,0,0,972.6,406.974Z" transform="translate(-846.89 -356.662)" fill="#1a1818"/>
          <path id="Path_244-2" data-name="Path 244" d="M978.33,363.761h9.4v33.263a16.16,16.16,0,0,1,11.072-4.515,14.308,14.308,0,0,1,11.031,4.472q3.512,3.886,3.508,12.409v24.953h-9.4V410.269q0-4.886-1.735-7.084t-5.573-2.192q-4.94,0-6.94,3.054-1.97,3.087-1.964,10.611v19.685h-9.4Z" transform="translate(-834.432 -363.761)" fill="#1a1818"/>
          <path id="Path_245-2" data-name="Path 245" d="M1023.26,398.717v31.932h-9.4V398.717h-4.009v-8.772h4.009V375.027h9.4v14.918h7.317v8.772Z" transform="translate(-824.097 -360.067)" fill="#1a1818"/>
        </g>
        <g id="Group_72-2" data-name="Group 72" transform="translate(181.163 86.367)">
          <path id="Path_246-2" data-name="Path 246" d="M879.7,466.6v26.2h-9.733v-64.52h11.027a50.089,50.089,0,0,1,12.247,1.125,16.461,16.461,0,0,1,7.35,4.264,18.362,18.362,0,0,1,5.561,13.709q0,8.864-5.934,14.036-5.936,5.189-16,5.187Zm0-9.027h3.638q13.407,0,13.409-10.323,0-9.987-13.826-9.987H879.7Z" transform="translate(-869.965 -422.221)" fill="#1a1818"/>
          <path id="Path_247-2" data-name="Path 247" d="M900.037,434.97a5.8,5.8,0,0,1,1.8-4.263,6.083,6.083,0,0,1,8.646,0,5.786,5.786,0,0,1,1.806,4.3,5.933,5.933,0,0,1-1.806,4.345,5.787,5.787,0,0,1-4.3,1.8,6.143,6.143,0,0,1-6.144-6.183Zm10.825,16.92v40.7h-9.4v-40.7Z" transform="translate(-860.104 -422.016)" fill="#1a1818"/>
          <path id="Path_248-2" data-name="Path 248" d="M928.821,464.892,914.2,446.214h11.2l9.07,11.867,9.237-11.867h11.53l-15.042,18.678,17.426,22.024h-11.2L934.465,471.7l-12.246,15.212H910.727Z" transform="translate(-856.599 -416.34)" fill="#1a1818"/>
          <path id="Path_249-2" data-name="Path 249" d="M984.011,469.06H954.849a12.352,12.352,0,0,0,3.263,7.982,9.925,9.925,0,0,0,7.394,2.924,9.6,9.6,0,0,0,5.8-1.673,23.715,23.715,0,0,0,5.14-6.183l7.945,4.429a32.2,32.2,0,0,1-3.888,5.37,20.521,20.521,0,0,1-4.389,3.676,17.578,17.578,0,0,1-5.051,2.109,24.724,24.724,0,0,1-5.893.669q-9.115,0-14.625-5.848-5.524-5.892-5.519-15.631,0-9.648,5.346-15.627,5.4-5.888,14.29-5.893,9,0,14.211,5.725,5.181,5.681,5.184,15.756Zm-9.649-7.691q-1.96-7.517-9.484-7.519a9.674,9.674,0,0,0-3.214.522,9.085,9.085,0,0,0-2.742,1.5,9.6,9.6,0,0,0-2.106,2.357,10.927,10.927,0,0,0-1.341,3.138Z" transform="translate(-845.352 -416.619)" fill="#1a1818"/>
          <path id="Path_250-2" data-name="Path 250" d="M987.734,423.717v70.576h-9.4V423.717Z" transform="translate(-834.432 -423.717)" fill="#1a1818"/>
        </g>
      </g>
    </g>
  </g>
</svg>
