<svg xmlns="http://www.w3.org/2000/svg" viewBox="0 0 2222.6 1065.31"><defs><style>.cls-1{fill:none;stroke:#231f20;stroke-linecap:round;stroke-miterlimit:10;stroke-width:60px;}.cls-2{fill:#231f20;}</style></defs><title>logo1</title><g id="Layer_2" data-name="Layer 2"><g id="Layer_1-2" data-name="Layer 1"><path class="cls-1" d="M1724.86,173A259.92,259.92,0,0,1,1932.2,70.07c143.81,0,260.4,116.59,260.4,260.4S2076,590.86,1932.2,590.86,1691.28,469,1671.81,329.68c-64.07-428.87-382.15-344.95-477.29-75.91-140.87,398.34-490.25,445.64-560.35,50.86C574.69-30.32,339.91-100.76,30,514.37"/><path class="cls-2" d="M611.69,937C611.69,886,637,861,672.22,861c23.59,0,40,13.6,52.47,27.76v-84.4h6.39v173.8c0,18.6.82,23.61,3.33,31.66H728c-2.78-7.78-3.33-16.39-3.33-24.16-9.44,11.1-28.32,27.21-52.47,27.21C637,1012.83,611.69,988.12,611.69,937Zm113,41.09V896.49c-17.77-19.43-31.93-29.43-52.47-29.43-30.83,0-54.15,22-54.15,70s24.16,69.69,54.7,69.69C696.92,1006.72,715.8,989,724.69,978.12Z"/><path class="cls-2" d="M777.15,937.31c0,34.7,18,69.41,53,69.41,23.33,0,39.43-16.38,51.65-33.59l5,3.6c-12.21,17.22-30.26,36.1-56.64,36.1-38.86,0-59.41-37.49-59.41-75.52,0-52.47,31.1-76.63,60.25-76.63,30.54,0,55.8,25,55.8,73.85v.84H777.15Zm103-7.77c-1.66-40.82-22.49-62.75-49.14-62.75-25.27,0-50.81,20.55-53.59,62.75Z"/><path class="cls-2" d="M971.48,1006.72c28.32,0,46.64-12.77,46.64-34.15,0-22.49-17.49-30-48-37.76s-47.19-15.55-47.19-39.7c0-18.88,15.82-34.15,45.25-34.15,25.82,0,41.09,10.82,50.81,21.94l-5,3.88c-9.16-10.55-23.32-19.72-45.81-19.72-27.49,0-38.87,13.61-38.87,28.05,0,20.82,15.83,26.93,42.75,33.87,30.82,7.77,52.48,15.83,52.48,43.59,0,24.71-21.38,40.26-53,40.26-24.71,0-41.92-11.94-53-26.66l5-3.88C934,995.62,949.27,1006.72,971.48,1006.72Z"/><path class="cls-2" d="M1065.87,814.31h8.88V826h-8.88ZM1067,864h6.39v145.77H1067Z"/><path class="cls-2" d="M1241.05,857.07v6.66c-10.83,1.67-23.6,7.5-30.82,12.5A49.46,49.46,0,0,1,1225,912.05c0,27.76-21.38,50.25-54.14,50.25-9.72,0-18.6-1.94-25.82-5.56-11.11,5.56-16.94,12.5-16.94,19.16,0,11.66,9.16,13.89,46.37,16.1,37.47,2.23,61.91,9.17,61.91,34.71,0,20.55-22.49,38.6-65.52,38.6-39.43,0-64.69-10.56-64.69-34.71,0-18.88,19.15-31.37,31.09-36.93-10.55-2.77-15.55-7.78-15.55-17.77,0-8.33,7.5-16.38,18-21.93-14.16-9.16-22.49-24.43-22.49-41.92,0-27.77,20.83-51.09,53.59-51.09,13.88,0,25.54,4.16,34.42,11.11C1215.79,865.67,1229.67,859,1241.05,857.07ZM1112.5,1030.6c0,20.82,24.71,28.6,58.31,28.6,38.86,0,59.13-14.72,59.13-32.49,0-22.49-26.65-27.21-56.08-28.87-11.66-.56-21.38-1.12-28.87-2.51C1129.72,1001.17,1112.5,1013.66,1112.5,1030.6Zm11.11-118.55c0,24.42,18.32,44.14,47.2,44.14s47.76-19.72,47.76-44.14-18.88-45-47.76-45S1123.61,887.62,1123.61,912.05Z"/><path class="cls-2" d="M1276.29,864h6.39v25.54c10.55-9.43,32.76-28.59,60-28.59,31.93,0,44.7,16.93,44.7,46.09v102.73H1381V907.05c0-26.66-11.93-40-38.31-40-22.76,0-43.32,13.89-60,29.72v113h-6.39Z"/><path class="cls-2" d="M1431.21,937.31c0,34.7,18,69.41,53,69.41,23.32,0,39.43-16.38,51.65-33.59l5,3.6c-12.21,17.22-30.27,36.1-56.64,36.1-38.87,0-59.41-37.49-59.41-75.52,0-52.47,31.09-76.63,60.25-76.63,30.53,0,55.8,25,55.8,73.85v.84H1431.21Zm103-7.77c-1.66-40.82-22.48-62.75-49.13-62.75-25.27,0-50.81,20.55-53.59,62.75Z"/><path class="cls-2" d="M1649.42,861.52l5.27.55-1.11,5.55-5.27-.56c-26.38-2.77-46.65,15.27-61.09,39.71v103h-6.39V864h6.39v33.32C1602.49,874.29,1622.76,858.74,1649.42,861.52Z"/></g></g></svg>